<svg xmlns="http://www.w3.org/2000/svg" xmlns:xlink="http://www.w3.org/1999/xlink" id="Layer_1" viewBox="0 0 1080 1080"><defs><radialGradient id="radial-gradient" cx="5396.14" cy="150378.28" fx="5396.14" fy="150378.28" r="973.76" gradientTransform="translate(-1358.25 -2404.21) scale(.35 .02)" gradientUnits="userSpaceOnUse"><stop offset="0" stop-color="#fff"></stop><stop offset="1" stop-color="#000"></stop></radialGradient><mask id="mask" x="199.48" y="986.93" width="686.66" height="44.9" maskUnits="userSpaceOnUse"><path d="M542.81,986.93c-189.62,0-343.33,10.05-343.33,22.45s153.71,22.45,343.33,22.45,343.33-10.05,343.33-22.45-153.71-22.45-343.33-22.45" style="fill:url(#radial-gradient);"></path></mask></defs><g id="Plum"><g style="mask:url(#mask);"><path id="Shadow" d="M542.81,986.93c-189.62,0-343.33,10.05-343.33,22.45s153.71,22.45,343.33,22.45,343.33-10.05,343.33-22.45-153.71-22.45-343.33-22.45" style="fill:#231f20; opacity:.6;"></path></g><g><polygon points="641.64 1003.41 753.75 954.96 576.12 1003.17 641.64 1003.41" style="fill:#2b1b39;"></polygon><polygon points="279.12 922.77 421.8 1006.2 491.68 968.59 279.12 922.77" style="fill:#4f2542;"></polygon><polygon points="421.8 1006.2 576.12 1003.17 491.68 968.59 421.8 1006.2" style="fill:#2b1b39;"></polygon><polygon points="576.12 1003.17 753.75 954.96 635.09 937.77 576.12 1003.17" style="fill:#5f3755;"></polygon><polygon points="480.03 678.27 711.53 569.74 480.03 559.36 480.03 678.27" style="fill:#2b1b39;"></polygon><polygon points="480.03 678.27 734.82 765.12 711.53 569.74 480.03 678.27" style="fill:#391c4e;"></polygon><polygon points="576.12 794.24 734.82 765.12 480.03 678.27 576.12 794.24" style="fill:#48295b;"></polygon><polygon points="421.8 872.38 576.12 794.24 480.03 678.27 421.8 872.38" style="fill:#653b6a;"></polygon><polygon points="421.8 872.38 635.09 937.77 576.12 794.24 421.8 872.38" style="fill:#391c4e;"></polygon><polygon points="263.1 548.65 296.59 754.4 379.57 684.74 263.1 548.65" style="fill:#712d63;"></polygon><polygon points="576.12 794.24 635.09 937.77 734.82 765.12 576.12 794.24" style="fill:#4e2351;"></polygon><polygon points="379.57 684.74 421.8 872.38 480.03 678.27 379.57 684.74" style="fill:#4e2351;"></polygon><polygon points="296.59 754.4 421.8 872.38 379.57 684.74 296.59 754.4" style="fill:#391c4e;"></polygon><polygon points="720.26 332.68 791.6 287.1 625.63 287.1 720.26 332.68" style="fill:#5c2844;"></polygon><polygon points="398.5 454.74 263.1 548.65 379.57 684.74 398.5 454.74" style="fill:#391c4e;"></polygon><polygon points="870.22 438.51 791.6 287.1 720.26 332.68 870.22 438.51" style="fill:#8b4f70;"></polygon><polygon points="215.78 684.74 296.59 754.4 263.1 548.65 215.78 684.74" style="fill:#d3c6d8;"></polygon><polygon points="720.26 332.68 625.63 287.1 625.63 428.02 720.26 332.68" style="fill:#4e2351;"></polygon><polygon points="379.57 684.74 480.03 678.27 480.03 559.36 379.57 684.74" style="fill:#391c4e;"></polygon><polygon points="625.63 287.1 456.74 328.12 480.03 362.81 625.63 287.1" style="fill:#dbdbe5;"></polygon><polygon points="456.74 328.12 398.5 454.74 480.03 362.81 456.74 328.12" style="fill:#602d79;"></polygon><polygon points="480.03 362.81 398.5 454.74 480.03 559.36 480.03 362.81" style="fill:#4e2351;"></polygon><polygon points="480.03 559.36 398.5 454.74 379.57 684.74 480.03 559.36" style="fill:#642254;"></polygon><polygon points="625.63 428.02 625.63 287.1 480.03 362.81 625.63 428.02" style="fill:#712d63;"></polygon><polygon points="480.03 362.81 480.03 559.36 625.63 428.02 480.03 362.81" style="fill:#391c4e;"></polygon><polygon points="480.03 559.36 711.53 569.74 625.63 428.02 480.03 559.36" style="fill:#48295b;"></polygon><polygon points="491.68 968.59 576.12 1003.17 421.8 872.38 491.68 968.59" style="fill:#391c4e;"></polygon><polygon points="296.59 754.4 279.12 922.77 421.8 872.38 296.59 754.4" style="fill:#5f3664;"></polygon><polygon points="279.12 922.77 491.68 968.59 421.8 872.38 279.12 922.77" style="fill:#4e2351;"></polygon><polygon points="215.78 684.74 279.12 922.77 296.59 754.4 215.78 684.74" style="fill:#765f8d;"></polygon><polygon points="576.12 1003.17 635.09 937.77 421.8 872.38 576.12 1003.17" style="fill:#2b1b39;"></polygon><polygon points="753.75 954.96 846.93 823.36 734.82 765.12 753.75 954.96" style="fill:#823b59;"></polygon><polygon points="635.09 937.77 753.75 954.96 734.82 765.12 635.09 937.77" style="fill:#653250;"></polygon><polygon points="350.46 265.77 242.72 390.47 456.74 328.12 350.46 265.77" style="fill:#e1dae4;"></polygon><polygon points="576.12 252.45 466.93 216.19 456.74 252.45 576.12 252.45" style="fill:#936d98;"></polygon><polygon points="188.85 734.07 279.12 922.77 215.78 684.74 188.85 734.07" style="fill:#9d8fad;"></polygon><polygon points="456.74 328.12 576.12 252.45 456.74 252.45 456.74 328.12" style="fill:#7b5f8f;"></polygon><polygon points="456.74 252.45 350.46 265.77 456.74 328.12 456.74 252.45" style="fill:#d3c6d8;"></polygon><polygon points="625.63 287.1 576.12 252.45 456.74 328.12 625.63 287.1" style="fill:#b7abc5;"></polygon><polygon points="694.05 244.44 576.12 252.45 625.63 287.1 694.05 244.44" style="fill:#5f334f;"></polygon><polygon points="466.93 216.19 350.46 265.77 456.74 252.45 466.93 216.19" style="fill:#a995b5;"></polygon><polygon points="242.72 390.47 188.85 548.65 263.1 548.65 242.72 390.47" style="fill:#653b6a;"></polygon><polygon points="791.6 287.1 694.05 244.44 625.63 287.1 791.6 287.1" style="fill:#5a2243;"></polygon><polygon points="188.85 548.65 188.85 734.07 215.78 684.74 188.85 548.65" style="fill:#ac9ab4;"></polygon><polygon points="263.1 548.65 188.85 548.65 215.78 684.74 263.1 548.65" style="fill:#a182a9;"></polygon><polygon points="398.5 454.74 242.72 390.47 263.1 548.65 398.5 454.74" style="fill:#48295b;"></polygon><polygon points="456.74 328.12 242.72 390.47 398.5 454.74 456.74 328.12" style="fill:#7c3478;"></polygon><polygon points="854.21 631.42 870.22 438.51 798.88 479.28 854.21 631.42" style="fill:#794a76;"></polygon><polygon points="711.53 569.74 854.21 631.42 798.88 479.28 711.53 569.74" style="fill:#48295b;"></polygon><polygon points="798.88 479.28 870.22 438.51 720.26 332.68 798.88 479.28" style="fill:#7a3d67;"></polygon><polygon points="798.88 479.28 720.26 332.68 625.63 428.02 798.88 479.28" style="fill:#653b6a;"></polygon><polygon points="734.82 765.12 854.21 631.42 711.53 569.74 734.82 765.12" style="fill:#712d63;"></polygon><polygon points="711.53 569.74 798.88 479.28 625.63 428.02 711.53 569.74" style="fill:#653b6a;"></polygon><polygon points="891.15 627.86 870.22 438.51 854.21 631.42 891.15 627.86" style="fill:#7f425f;"></polygon><polygon points="734.82 765.12 846.93 823.36 854.21 631.42 734.82 765.12" style="fill:#653b6a;"></polygon><polygon points="854.21 631.42 846.93 823.36 891.15 627.86 854.21 631.42" style="fill:#8e5978;"></polygon><g><polygon points="595.78 124.03 625.63 78.68 576.12 102.46 595.78 124.03" style="fill:#5f4319;"></polygon><polygon points="576.12 252.45 595.78 124.03 576.12 102.46 576.12 252.45" style="fill:#c2c76d;"></polygon><polygon points="598.23 250.95 595.78 124.03 576.12 252.45 598.23 250.95" style="fill:#706f55;"></polygon><polygon points="576.12 102.46 625.63 78.68 592.17 47.76 576.12 102.46" style="fill:#9d5b3e;"></polygon><polygon points="592.17 47.76 625.63 78.68 645.61 47.76 592.17 47.76" style="fill:#cd8876;"></polygon></g></g></g></svg>